<svg width="80" height="80" viewBox="0 0 80 80" fill="none" xmlns="http://www.w3.org/2000/svg">
  <!-- Background circle with gradient -->
  <circle cx="40" cy="40" r="40" fill="url(#gradient1)"/>
  
  <!-- Code brackets representing development -->
  <path d="M24 28L16 36L24 44" stroke="white" stroke-width="3" stroke-linecap="round" stroke-linejoin="round"/>
  <path d="M56 28L64 36L56 44" stroke="white" stroke-width="3" stroke-linecap="round" stroke-linejoin="round"/>
  
  <!-- Central hub/network symbol -->
  <circle cx="40" cy="40" r="8" fill="white"/>
  <circle cx="40" cy="40" r="4" fill="url(#gradient2)"/>
  
  <!-- Connecting lines representing community -->
  <path d="M40 32L40 24" stroke="white" stroke-width="2.5" stroke-linecap="round"/>
  <path d="M40 48L40 56" stroke="white" stroke-width="2.5" stroke-linecap="round"/>
  <path d="M32 40L24 40" stroke="white" stroke-width="2.5" stroke-linecap="round"/>
  <path d="M48 40L56 40" stroke="white" stroke-width="2.5" stroke-linecap="round"/>
  
  <!-- Diagonal connections for network effect -->
  <path d="M32 32L24 24" stroke="white" stroke-width="2" stroke-linecap="round" opacity="0.7"/>
  <path d="M48 32L56 24" stroke="white" stroke-width="2" stroke-linecap="round" opacity="0.7"/>
  <path d="M32 48L24 56" stroke="white" stroke-width="2" stroke-linecap="round" opacity="0.7"/>
  <path d="M48 48L56 56" stroke="white" stroke-width="2" stroke-linecap="round" opacity="0.7"/>
  
  <!-- Additional network nodes for more community feel -->
  <circle cx="40" cy="20" r="2" fill="white" opacity="0.8"/>
  <circle cx="40" cy="60" r="2" fill="white" opacity="0.8"/>
  <circle cx="20" cy="40" r="2" fill="white" opacity="0.8"/>
  <circle cx="60" cy="40" r="2" fill="white" opacity="0.8"/>
  
  <!-- Gradients -->
  <defs>
    <linearGradient id="gradient1" x1="0%" y1="0%" x2="100%" y2="100%">
      <stop offset="0%" style="stop-color:#3B82F6;stop-opacity:1" />
      <stop offset="50%" style="stop-color:#8B5CF6;stop-opacity:1" />
      <stop offset="100%" style="stop-color:#EC4899;stop-opacity:1" />
    </linearGradient>
    <linearGradient id="gradient2" x1="0%" y1="0%" x2="100%" y2="100%">
      <stop offset="0%" style="stop-color:#F59E0B;stop-opacity:1" />
      <stop offset="100%" style="stop-color:#EF4444;stop-opacity:1" />
    </linearGradient>
  </defs>
</svg>
